<svg width="24" height="24" viewBox="0 0 24 24" fill="none" xmlns="http://www.w3.org/2000/svg">
<path d="M19.3333 4H4.66667C3.19391 4 2 5.19391 2 6.66667V17.3333C2 18.8061 3.19391 20 4.66667 20H19.3333C20.8061 20 22 18.8061 22 17.3333V6.66667C22 5.19391 20.8061 4 19.3333 4Z" fill="#071B65"/>
<path d="M4.73401 4H4.66668C3.34601 4 2.25668 4.96267 2.04468 6.22267L19.266 20H19.3333C20.654 20 21.7433 19.0373 21.9553 17.7773L4.73401 4Z" fill="white"/>
<path d="M16.1667 14.0001H14.5L21.1227 19.2981C21.3807 19.0627 21.592 18.7801 21.742 18.4601L16.1667 14.0001Z" fill="#B92932"/>
<path d="M2.25806 5.5393L7.83339 9.99997H9.50006L2.87739 4.70197C2.61939 4.9373 2.40806 5.2193 2.25806 5.5393Z" fill="#B92932"/>
<path d="M4.66668 20H4.73401L21.9553 6.22267C21.7433 4.962 20.654 4 19.3333 4H19.266L2.04468 17.7773C2.25668 19.038 3.34601 20 4.66668 20Z" fill="white"/>
<path d="M14 4H10V20H14V4Z" fill="white"/>
<path d="M22 10H2V14H22V10Z" fill="white"/>
<path d="M13.3334 4H10.6667V20H13.3334V4Z" fill="#B92932"/>
<path d="M22 13.3334V10.6667L2 10.6667V13.3334L22 13.3334Z" fill="#B92932"/>
<path d="M20.148 4.13995L14 9.05729V9.99995H14.5L21.1287 4.70662C20.8493 4.45062 20.5167 4.25929 20.148 4.13995Z" fill="#B92932"/>
<path d="M2.88525 19.3046C3.16125 19.5539 3.48792 19.7419 3.84992 19.8593L9.99992 14.9393V14.0006H9.49992L2.88525 19.3046Z" fill="#B92932"/>
<path opacity="0.15" d="M19.3333 4H4.66667C3.194 4 2 5.194 2 6.66667V17.3333C2 18.806 3.194 20 4.66667 20H19.3333C20.806 20 22 18.806 22 17.3333V6.66667C22 5.194 20.806 4 19.3333 4ZM21.3333 17.3333C21.3333 18.436 20.436 19.3333 19.3333 19.3333H4.66667C3.564 19.3333 2.66667 18.436 2.66667 17.3333V6.66667C2.66667 5.564 3.564 4.66667 4.66667 4.66667H19.3333C20.436 4.66667 21.3333 5.564 21.3333 6.66667V17.3333Z" fill="black"/>
<path opacity="0.2" d="M19.3334 4.66669H4.66675C3.56208 4.66669 2.66675 5.56202 2.66675 6.66669V7.33335C2.66675 6.22869 3.56208 5.33335 4.66675 5.33335H19.3334C20.4381 5.33335 21.3334 6.22869 21.3334 7.33335V6.66669C21.3334 5.56202 20.4381 4.66669 19.3334 4.66669Z" fill="white"/>
</svg>
